<?xml version="1.0" encoding="UTF-8"?>
<svg version="1.1" xmlns="http://www.w3.org/2000/svg" width="1000" height="1000">
<path d="M0 0 C2.08355294 -0.00187099 4.16710552 -0.00417283 6.25065756 -0.00686532 C11.94575352 -0.01295423 17.64083474 -0.01285317 23.33593321 -0.01167095 C29.49022362 -0.0114662 35.64450938 -0.01699277 41.79879761 -0.02172852 C53.84535456 -0.03001983 65.89190529 -0.03279567 77.93846434 -0.03334089 C87.73580696 -0.03380141 97.53314801 -0.03586481 107.33049011 -0.03904152 C110.15630261 -0.03993914 112.98211511 -0.04082896 115.80792761 -0.0417164 C116.51054777 -0.04193744 117.21316793 -0.04215849 117.93707961 -0.04238624 C137.68717127 -0.04853613 157.43726238 -0.05248725 177.18735504 -0.05204296 C178.30312743 -0.05201959 178.30312743 -0.05201959 179.44144068 -0.05199575 C183.21108787 -0.05191265 186.98073506 -0.05181361 190.75038224 -0.05171105 C191.8732648 -0.05168113 191.8732648 -0.05168113 193.01883186 -0.05165061 C194.53265926 -0.05161017 196.04648665 -0.05156837 197.56031405 -0.05152521 C221.09941965 -0.05091281 244.63851083 -0.05841432 268.1776123 -0.07209778 C294.65958419 -0.08748582 321.1415466 -0.09606235 347.62352324 -0.09513456 C350.45185057 -0.09505993 353.28017791 -0.09501122 356.10850525 -0.09498024 C356.80484508 -0.09496859 357.50118491 -0.09495693 358.21862595 -0.09494492 C369.38453234 -0.09491426 380.55042613 -0.10127762 391.71632878 -0.1099125 C402.95516737 -0.11842351 414.19398791 -0.11918176 425.43282956 -0.11280318 C431.51146871 -0.10955003 437.59006258 -0.10943752 443.66869736 -0.11815643 C449.24772583 -0.12607597 454.82667352 -0.12453494 460.40570015 -0.1158723 C462.40969789 -0.11434922 464.41370182 -0.11610772 466.41769224 -0.12173238 C483.76371967 -0.16714151 501.24385994 0.59192598 518.31726074 3.88371277 C519.65784546 4.1364093 519.65784546 4.1364093 521.0255127 4.39421082 C559.66572632 12.00161936 597.05946696 28.73832701 627.25476074 54.13371277 C628.41218072 55.08699818 629.56973537 56.04012011 630.72741699 56.99308777 C643.08073362 67.269843 654.39667341 78.42291885 664.25476074 91.13371277 C665.04108887 92.10308777 665.82741699 93.07246277 666.63757324 94.07121277 C683.23866874 114.88763346 695.5795643 139.04514762 704.25476074 164.13371277 C704.49919922 164.82738953 704.7436377 165.52106628 704.9954834 166.23576355 C714.91090539 194.66751172 717.41421263 224.03352347 717.38847351 253.91654968 C717.39034491 255.99200338 717.39264691 258.06745673 717.39533883 260.14290953 C717.40142266 265.8110124 717.40132729 271.47910044 717.40014446 277.14720583 C717.39993958 283.27423101 717.4054675 289.40125155 717.41020203 295.52827454 C717.4184905 307.51955033 717.42126905 319.51081988 717.4218144 331.50209779 C717.42227505 341.25507151 717.4243391 351.00804364 717.42751503 360.76101685 C717.42841266 363.57475519 717.42930248 366.38849354 717.43018991 369.20223188 C717.43041096 369.90186321 717.430632 370.60149454 717.43085975 371.32232681 C717.43700897 390.98632553 717.44096082 410.6503237 717.44051647 430.31432343 C717.44050089 431.05481473 717.44048531 431.79530604 717.44046926 432.55823648 C717.44038616 436.31081178 717.44028712 440.06338707 717.44018456 443.81596237 C717.44015464 444.93374581 717.44015464 444.93374581 717.44012412 446.07411072 C717.44008368 447.58106334 717.44004188 449.08801596 717.43999872 450.59496858 C717.43938633 474.02683483 717.44688794 497.4586866 717.46057129 520.89054871 C717.47596168 547.25607506 717.48453573 573.62159189 717.48360807 599.98712301 C717.48353344 602.8033762 717.48348473 605.61962938 717.48345375 608.43588257 C717.48343627 609.47592198 717.48343627 609.47592198 717.48341843 610.53697229 C717.48338778 621.65148543 717.48974908 632.7659859 717.49838602 643.88049529 C717.50689994 655.06881982 717.50765312 666.25712622 717.50127669 677.44545382 C717.49802504 683.49587017 717.4979055 689.54624104 717.50662994 695.59665298 C717.51455624 701.15102168 717.51300174 706.70530929 717.50434581 712.25967616 C717.50282419 714.25356765 717.50457552 716.24746539 717.51020589 718.24134952 C717.66434823 776.77238106 701.44483778 834.72544032 663.25476074 880.13371277 C662.30147533 881.29113275 661.3483534 882.4486874 660.39538574 883.60636902 C650.11863051 895.95968564 638.96555466 907.27562544 626.25476074 917.13371277 C625.28538574 917.92004089 624.31601074 918.70636902 623.31726074 919.51652527 C602.50084005 936.11762077 578.34332589 948.45851633 553.25476074 957.13371277 C552.56108398 957.37815125 551.86740723 957.62258972 551.15270996 957.87443542 C522.72096179 967.78985742 493.35495004 970.29316466 463.47192383 970.26742554 C461.39647013 970.26929693 459.32101678 970.27159894 457.24556398 970.27429086 C451.57746111 970.28037469 445.90937307 970.28027932 440.24126768 970.27909648 C434.1142425 970.27889161 427.98722197 970.28441952 421.86019897 970.28915405 C409.86892318 970.29744253 397.87765363 970.30022108 385.88637573 970.30076643 C376.133402 970.30122707 366.38042987 970.30329112 356.62745667 970.30646706 C353.81371832 970.30736469 350.99997997 970.3082545 348.18624163 970.30914193 C347.4866103 970.30936298 346.78697897 970.30958403 346.0661467 970.30981178 C326.40214798 970.315961 306.73814981 970.31991285 287.07415009 970.3194685 C286.33365878 970.31945292 285.59316747 970.31943734 284.83023703 970.31942129 C281.07766173 970.31933819 277.32508644 970.31923915 273.57251114 970.31913658 C272.82732218 970.31911664 272.08213323 970.31909669 271.31436279 970.31907614 C269.80741017 970.3190357 268.30045755 970.31899391 266.79350493 970.31895075 C243.36163868 970.31833836 219.92978691 970.32583997 196.4979248 970.33952332 C170.13239845 970.35491371 143.76688162 970.36348775 117.4013505 970.36256009 C114.58509731 970.36248547 111.76884413 970.36243676 108.95259094 970.36240578 C107.91255153 970.3623883 107.91255153 970.3623883 106.85150122 970.36237046 C95.73698808 970.3623398 84.62248761 970.3687011 73.50797822 970.37733804 C62.31965369 970.38585197 51.13134729 970.38660514 39.94301969 970.38022872 C33.89260334 970.37697707 27.84223247 970.37685752 21.79182053 970.38558197 C16.23745183 970.39350827 10.68316422 970.39195376 5.12879735 970.38329784 C3.13490586 970.38177622 1.14100812 970.38352755 -0.85287601 970.38915791 C-59.38390755 970.54330026 -117.33696681 954.3237898 -162.74523926 916.13371277 C-163.90265924 915.18042735 -165.06021389 914.22730543 -166.21789551 913.27433777 C-178.57121213 902.99758254 -189.88715193 891.84450669 -199.74523926 879.13371277 C-200.53156738 878.16433777 -201.31789551 877.19496277 -202.12805176 876.19621277 C-218.72914726 855.37979208 -231.07004281 831.22227791 -239.74523926 806.13371277 C-239.98967773 805.44003601 -240.23411621 804.74635925 -240.48596191 804.03166199 C-250.27707283 775.95636674 -252.90422966 746.91267287 -252.87895203 717.38847351 C-252.88082301 715.30492057 -252.88312486 713.22136799 -252.88581735 711.13781595 C-252.89190626 705.44271999 -252.8918052 699.74763877 -252.89062297 694.0525403 C-252.89041823 687.89824989 -252.89594479 681.74396413 -252.90068054 675.5896759 C-252.90897186 663.54311895 -252.91174769 651.49656822 -252.91229292 639.45000917 C-252.91275344 629.65266655 -252.91481683 619.85532551 -252.91799355 610.0579834 C-252.91889117 607.2321709 -252.91978098 604.4063584 -252.92066842 601.5805459 C-252.92088947 600.87792574 -252.92111052 600.17530558 -252.92133827 599.4513939 C-252.92748815 579.70130224 -252.93143927 559.95121113 -252.93099499 540.20111847 C-252.93097941 539.45727021 -252.93096383 538.71342195 -252.93094778 537.94703283 C-252.93086468 534.17738564 -252.93076564 530.40773845 -252.93066307 526.63809127 C-252.93064313 525.88950289 -252.93062318 525.14091452 -252.93060263 524.36964165 C-252.93056219 522.85581426 -252.9305204 521.34198686 -252.93047724 519.82815946 C-252.92986484 496.28905386 -252.93736635 472.74996268 -252.9510498 449.21086121 C-252.96643785 422.72888932 -252.97501438 396.24692691 -252.97408658 369.76495028 C-252.97401196 366.93662294 -252.97396325 364.1082956 -252.97393227 361.27996826 C-252.97392061 360.58362843 -252.97390896 359.8872886 -252.97389695 359.16984756 C-252.97386628 348.00394117 -252.98022965 336.83804738 -252.98886453 325.67214473 C-252.99737554 314.43330614 -252.99813378 303.1944856 -252.99175521 291.95564395 C-252.98850205 285.8770048 -252.98838955 279.79841093 -252.99710846 273.71977615 C-253.005028 268.14074769 -253.00348696 262.56179999 -252.99482433 256.98277336 C-252.99330125 254.97877562 -252.99505975 252.97477169 -253.0006844 250.97078127 C-253.04609354 233.62475384 -252.28702604 216.14461357 -248.99523926 199.07121277 C-248.8267749 198.17748962 -248.65831055 197.28376648 -248.48474121 196.36296082 C-240.87733267 157.72274719 -224.14062502 120.32900655 -198.74523926 90.13371277 C-197.79195384 88.97629279 -196.83883192 87.81873814 -195.88586426 86.66105652 C-185.60910903 74.30773989 -174.45603318 62.9918001 -161.74523926 53.13371277 C-160.77586426 52.34738464 -159.80648926 51.56105652 -158.80773926 50.75090027 C-137.99131857 34.14980477 -113.8338044 21.80890921 -88.74523926 13.13371277 C-88.0515625 12.88927429 -87.35788574 12.64483582 -86.64318848 12.39299011 C-58.56789323 2.60187919 -29.52419936 -0.02527763 0 0 Z " fill="#484848" transform="translate(267.7452392578125,14.866287231445313)"/>
<path d="M0 0 C45.87 0 91.74 0 139 0 C139.33 86.13 139.66 172.26 140 261 C143.63 257.04 147.26 253.08 151 249 C155.25 244.75 155.25 244.75 157.17578125 242.85546875 C159.01389838 240.98586353 160.72985688 239.05149393 162.4375 237.0625 C165.00665271 234.07198284 167.69317256 231.26883316 170.5 228.5 C173.28621141 225.7514401 175.95308392 222.97140209 178.5 220 C181.04691608 217.02859791 183.71378859 214.2485599 186.5 211.5 C189.26560408 208.77170593 191.91287031 206.01483166 194.4375 203.0625 C197.9446944 198.96941697 201.75725158 195.22775296 205.58984375 191.44140625 C208.26854532 188.72797273 210.74608118 185.89222977 213.22265625 182.99609375 C215.95099285 179.93196187 218.89667908 177.09518168 221.81640625 174.21484375 C223.77974671 172.22340539 225.62079669 170.18697422 227.4375 168.0625 C230.9446944 163.96941697 234.75725158 160.22775296 238.58984375 156.44140625 C241.26854532 153.72797273 243.74608118 150.89222977 246.22265625 147.99609375 C248.94977223 144.93333273 251.89404637 142.09776507 254.8125 139.21875 C256.79720342 137.20569368 258.66096916 135.14553597 260.5 133 C263.04691608 130.02859791 265.71378859 127.2485599 268.5 124.5 C271.26560408 121.77170593 273.91287031 119.01483166 276.4375 116.0625 C279.9446944 111.96941697 283.75725158 108.22775296 287.58984375 104.44140625 C290.26854532 101.72797273 292.74608118 98.89222977 295.22265625 95.99609375 C297.95099285 92.93196187 300.89667908 90.09518168 303.81640625 87.21484375 C305.77974671 85.22340539 307.62079669 83.18697422 309.4375 81.0625 C312.9446944 76.96941697 316.75725158 73.22775296 320.58984375 69.44140625 C323.26854532 66.72797273 325.74608118 63.89222977 328.22265625 60.99609375 C330.94977223 57.93333273 333.89404637 55.09776507 336.8125 52.21875 C338.79720342 50.20569368 340.66096916 48.14553597 342.5 46 C345.04691608 43.02859791 347.71378859 40.2485599 350.5 37.5 C353.26560408 34.77170593 355.91287031 32.01483166 358.4375 29.0625 C361.94229928 24.97221221 365.75198614 21.2329093 369.58203125 17.44921875 C372.23473757 14.76222866 374.71335791 11.97569392 377.13671875 9.08203125 C377.75160156 8.39496094 378.36648438 7.70789063 379 7 C379.37189736 6.43681029 379.74379473 5.87362059 380.12696171 5.29336452 C382.85148806 1.76584369 384.96268684 0.19438467 389.40225029 -0.63755608 C393.82456531 -0.95720888 398.24569238 -0.86641798 402.67553711 -0.79467773 C404.38098061 -0.79270178 406.08643007 -0.79381436 407.79187012 -0.79777527 C412.40960178 -0.79978016 417.02605541 -0.75868511 421.64349055 -0.70975757 C426.47340679 -0.66593805 431.30335376 -0.66188171 436.13343811 -0.65357971 C445.27434812 -0.6318405 454.41467067 -0.57442123 463.55532223 -0.50413328 C473.96390954 -0.42583632 484.37252521 -0.38738986 494.7813338 -0.35226524 C516.18788349 -0.27913712 537.59390471 -0.15604699 559 0 C558.06314357 1.10476534 557.1245718 2.20807616 556.18530273 3.31079102 C555.66282455 3.9253566 555.14034637 4.53992218 554.60203552 5.17311096 C551.7651046 8.40821901 548.66907799 11.37348037 545.58789062 14.37304688 C542.88284875 17.03554549 540.3198988 19.75727641 537.85400391 22.64379883 C533.84120655 27.24849488 529.56990656 31.55619578 525.23828125 35.859375 C524.3901889 36.70600708 523.54209656 37.55263916 522.66830444 38.42492676 C520.36427422 40.72418921 518.05806731 43.02124166 515.75100327 45.31745911 C513.32317123 47.73522816 510.89864529 50.15630749 508.47387695 52.57714844 C501.79678489 59.24225628 495.1146634 65.90231428 488.43247986 72.56231689 C482.30251094 78.67204267 476.17364132 84.78286085 470.04882717 90.89775467 C467.64189825 93.3005431 465.23391437 95.70225382 462.82339478 98.10144043 C460.13390597 100.7789096 457.44751535 103.45945287 454.76171875 106.140625 C453.97501801 106.92215942 453.18831726 107.70369385 452.3777771 108.50891113 C448.34159189 112.54471182 444.5039447 116.67293574 440.77851868 120.99563599 C437.48354848 124.70901823 433.94292544 128.17841687 430.421875 131.67578125 C429.59328979 132.50290619 428.76470459 133.33003113 427.91101074 134.18222046 C426.12412327 135.96532303 424.33608217 137.74727015 422.54699707 139.52816772 C419.71089979 142.35142316 416.87792769 145.17779263 414.04589844 148.00512695 C407.52361788 154.5154254 400.99630703 161.02067265 394.46893311 167.52586365 C388.48078996 173.49376125 382.49374773 179.4627527 376.51076126 185.43582058 C373.25186221 188.68898157 369.98907563 191.93821284 366.72558594 195.18676758 C365.00961673 196.8991021 363.29378897 198.6115784 361.578125 200.32421875 C360.81012573 201.0870517 360.04212646 201.84988464 359.25085449 202.63583374 C355.16372971 206.72256008 351.26223852 210.90522099 347.48942375 215.28375244 C345.81689688 217.21098782 344.07569081 219.0450951 342.26782227 220.84570312 C341.62768692 221.48576294 340.98755157 222.12582275 340.32801819 222.78527832 C339.33227028 223.7732843 339.33227028 223.7732843 338.31640625 224.78125 C337.61603745 225.48020386 336.91566864 226.17915771 336.19407654 226.89929199 C333.98591542 229.10191539 331.77427963 231.30101081 329.5625 233.5 C328.05250186 235.00497508 326.5427341 236.51018135 325.03320312 238.015625 C321.35812359 241.67975829 317.67992644 245.3407348 314 249 C315.36980611 251.78738115 316.82855845 254.34847799 318.58203125 256.9140625 C319.09515869 257.66574707 319.60828613 258.41743164 320.13696289 259.19189453 C320.68989014 259.99481934 321.24281738 260.79774414 321.8125 261.625 C322.3892749 262.46530762 322.9660498 263.30561523 323.56030273 264.17138672 C328.53768098 271.39192864 333.65737165 278.50353547 338.8125 285.59765625 C341.93173654 289.89419588 345.00495513 294.22190503 348.0625 298.5625 C348.55443848 299.26076904 349.04637695 299.95903809 349.55322266 300.6784668 C351.52988898 303.48626837 353.5046567 306.29540277 355.47949219 309.10449219 C356.96459128 311.21613276 358.45067909 313.32707143 359.9375 315.4375 C360.67734131 316.48780396 360.67734131 316.48780396 361.43212891 317.55932617 C365.05856796 322.69550721 368.7413521 327.7888525 372.4375 332.875 C376.94092371 339.07537574 381.32108331 345.34713637 385.625 351.6875 C389.88661736 357.96527788 394.24925147 364.14095555 398.77050781 370.23388672 C403.18578972 376.20292887 407.42353964 382.29140872 411.66552734 388.38427734 C415.57304129 393.98728385 419.5428874 399.53948899 423.5625 405.0625 C428.02596463 411.19942511 432.3632312 417.40892255 436.625 423.6875 C440.88660101 429.96528788 445.24925211 436.14095642 449.77050781 442.23388672 C454.18578972 448.20292887 458.42353964 454.29140872 462.66552734 460.38427734 C466.57304129 465.98728385 470.5428874 471.53948899 474.5625 477.0625 C479.02596463 483.19942511 483.3632312 489.40892255 487.625 495.6875 C491.88660101 501.96528788 496.24925211 508.14095642 500.77050781 514.23388672 C505.18578972 520.20292887 509.42353964 526.29140872 513.66552734 532.38427734 C517.57304129 537.98728385 521.5428874 543.53948899 525.5625 549.0625 C530.02596463 555.19942511 534.3632312 561.40892255 538.625 567.6875 C542.88660101 573.96528788 547.24925211 580.14095642 551.77050781 586.23388672 C556.17644726 592.19029875 560.40806622 598.26403948 564.63696289 604.34692383 C567.64454154 608.66427456 570.6799534 612.95636466 573.78125 617.20703125 C574.38469238 618.03420654 574.98813477 618.86138184 575.60986328 619.71362305 C576.76551492 621.29237426 577.9251988 622.86818365 579.08935547 624.44067383 C579.86110107 625.49484497 579.86110107 625.49484497 580.6484375 626.5703125 C581.10395996 627.18664551 581.55948242 627.80297852 582.02880859 628.43798828 C583 630 583 630 583 632 C560.53866476 632.44462522 538.07805872 632.77926362 515.61320972 632.98443127 C505.18115109 633.08224606 494.75183238 633.21548387 484.3215332 633.43334961 C475.22596468 633.62324457 466.13238037 633.74542093 457.03488463 633.7876814 C452.22028314 633.8123759 447.41135535 633.86999949 442.59858131 634.00887108 C413.4171218 634.81843423 413.4171218 634.81843423 406.18052292 630.20097542 C401.76008305 625.87813867 399.18365696 620.95312632 396.92406273 615.2500515 C395.7541098 612.40126834 394.15304268 610.06043697 392.32226562 607.59399414 C391.34963287 606.15813974 390.37761254 604.72187027 389.40625 603.28515625 C388.859617 602.47696442 388.31298401 601.66877258 387.74978638 600.83609009 C385.99877155 598.24562496 384.24914573 595.65422751 382.5 593.0625 C381.8875946 592.15545319 381.27518921 591.24840637 380.64422607 590.31387329 C370.87414588 575.83508444 361.21843395 561.28382341 351.625 546.6875 C343.55189736 534.40479847 335.45486368 522.15094566 327.1328125 510.03515625 C321.16857173 501.34568767 315.27272476 492.60968514 309.375 483.875 C308.75671326 482.95940308 308.13842651 482.04380615 307.50140381 481.10046387 C297.77874012 466.69294921 288.1715177 452.2122202 278.625 437.6875 C270.50753238 425.33735096 262.36345058 413.01829747 253.99609375 400.83569336 C250.20583044 395.30846567 246.44508616 389.76178424 242.6953125 384.20703125 C242.04138519 383.23856262 241.38745789 382.27009399 240.7137146 381.27227783 C239.36025088 379.26730479 238.00703072 377.26216731 236.65405273 375.25686646 C235.30610867 373.25933938 233.95764225 371.26216468 232.60864258 369.26535034 C230.70924407 366.45375308 228.81142999 363.64109314 226.9140625 360.828125 C226.33254425 359.96778152 225.751026 359.10743805 225.15188599 358.22102356 C224.61917084 357.43040024 224.08645569 356.63977692 223.53759766 355.82519531 C223.06987946 355.13210266 222.60216125 354.43901001 222.12026978 353.72491455 C221 352 221 352 220 350 C216.63062552 350.57991413 215.03447573 351.60349679 212.6875 354.0625 C211.88892578 354.88427734 211.88892578 354.88427734 211.07421875 355.72265625 C209.92973285 356.97921987 208.80234 358.2552166 207.76162148 359.59898186 C204.17764272 364.05852105 200.18153212 367.5454567 195.58334351 370.91946411 C169.77647182 389.89656645 140.7597038 412.48468045 135.55824661 445.87742233 C132.28899305 471.48483545 133.66383361 497.6271354 135.08896136 523.32360959 C135.85662438 537.44535145 136.10561856 551.5774689 136.39332199 565.71558189 C136.85645007 587.83990262 137.97798806 609.87812392 139 632 C93.13 632 47.26 632 0 632 C0 423.44 0 214.88 0 0 Z " fill="#FEFEFE" transform="translate(208,184)"/>
</svg>
